<?xml version="1.0" standalone="no"?>
<!DOCTYPE svg PUBLIC "-//W3C//DTD SVG 20010904//EN"
 "http://www.w3.org/TR/2001/REC-SVG-20010904/DTD/svg10.dtd">
<svg version="1.0" xmlns="http://www.w3.org/2000/svg"
 width="512.000000pt" height="512.000000pt" viewBox="0 0 512.000000 512.000000"
 preserveAspectRatio="xMidYMid meet">

<g transform="translate(0.000000,512.000000) scale(0.100000,-0.100000)"
fill="#66ae3e" stroke="none">
<path d="M1041 5105 c-150 -33 -254 -83 -363 -175 -117 -97 -209 -237 -255
-385 l-28 -90 0 -1895 0 -1895 28 -90 c80 -259 283 -462 542 -542 l90 -28
1105 0 1105 0 90 28 c259 80 464 285 541 542 27 87 28 100 32 363 l4 273 -27
55 c-31 63 -89 104 -160 112 -67 7 -146 -35 -183 -96 l-27 -47 -6 -260 c-5
-239 -7 -265 -28 -318 -43 -110 -132 -195 -245 -234 -48 -17 -116 -18 -1101
-18 l-1050 0 -58 23 c-111 45 -195 133 -234 246 -17 48 -18 146 -18 1886 0
1740 1 1838 18 1886 39 113 123 201 234 246 l58 23 1050 0 c985 0 1053 -1
1101 -18 113 -39 202 -124 245 -234 20 -52 23 -81 28 -290 l6 -231 30 -43 c83
-117 247 -117 330 0 l30 43 0 256 c-1 251 -1 259 -28 347 -79 258 -283 462
-542 542 l-90 28 -1080 2 c-894 1 -1091 -1 -1144 -12z"/>
<path d="M1869 4382 c-43 -22 -59 -38 -82 -82 -25 -47 -28 -63 -23 -109 6 -69
45 -126 105 -158 43 -22 52 -23 291 -23 239 0 248 1 291 23 60 32 99 89 105
158 5 46 2 62 -23 109 -23 44 -39 60 -82 82 l-53 28 -238 0 -238 0 -53 -28z"/>
<path d="M3238 3550 c-37 -11 -83 -45 -107 -79 -24 -34 -491 -1668 -491 -1718
0 -70 44 -139 112 -174 90 -46 227 1 271 93 19 42 468 1619 475 1670 17 130
-130 247 -260 208z"/>
<path d="M2097 3356 c-45 -17 -14 7 -338 -263 -282 -236 -320 -276 -361 -388
-31 -85 -31 -236 0 -316 43 -109 85 -154 367 -391 149 -125 289 -237 313 -249
122 -61 266 27 279 170 9 88 -22 125 -282 342 -324 270 -322 268 -295 318 5
10 128 118 274 240 277 233 294 251 304 338 7 63 -35 145 -92 178 -54 31 -119
40 -169 21z"/>
<path d="M3879 3357 c-121 -45 -170 -163 -114 -280 11 -25 99 -106 281 -262
265 -227 291 -255 267 -294 -5 -9 -124 -114 -264 -234 -285 -245 -315 -281
-306 -368 9 -106 83 -180 184 -187 47 -3 66 1 100 20 23 13 161 126 308 251
208 178 275 241 305 288 59 91 75 148 74 259 0 108 -22 181 -77 263 -33 51
-548 502 -607 532 -43 22 -109 27 -151 12z"/>
<path d="M2069 1082 c-43 -22 -59 -38 -82 -82 -25 -47 -28 -63 -23 -109 6 -69
45 -126 105 -158 124 -65 273 17 287 158 5 46 2 62 -23 109 -23 44 -39 60 -82
82 -68 36 -114 36 -182 0z"/>
</g>
</svg>
