<?xml version="1.0" standalone="no"?>
<!DOCTYPE svg PUBLIC "-//W3C//DTD SVG 20010904//EN"
 "http://www.w3.org/TR/2001/REC-SVG-20010904/DTD/svg10.dtd">
<svg version="1.0" xmlns="http://www.w3.org/2000/svg"
 width="512.000000pt" height="512.000000pt" viewBox="0 0 512.000000 512.000000"
 preserveAspectRatio="xMidYMid meet">

<g transform="translate(0.000000,512.000000) scale(0.100000,-0.100000)"
fill="#66ae3e" stroke="none">
<path d="M466 4549 c-62 -15 -153 -68 -197 -116 -22 -24 -55 -74 -72 -111
l-32 -67 0 -1696 0 -1695 37 -76 c45 -91 103 -147 196 -191 l67 -32 2096 0
2095 0 76 37 c91 45 147 103 191 196 l32 67 0 1695 0 1695 -32 67 c-44 93
-100 151 -191 196 l-76 37 -2075 2 c-1231 0 -2092 -3 -2115 -8z m477 -403
c104 -43 128 -175 47 -256 -66 -66 -156 -67 -221 -1 -124 123 13 325 174 257z
m720 0 c104 -43 128 -175 47 -256 -66 -66 -156 -67 -221 -1 -124 123 13 325
174 257z m720 0 c104 -43 128 -175 47 -256 -66 -66 -156 -67 -221 -1 -124 123
13 325 174 257z m2417 -1922 c0 -989 -3 -1306 -12 -1338 -16 -55 -99 -138
-154 -154 -60 -18 -4088 -18 -4148 0 -55 16 -138 99 -154 154 -9 32 -12 349
-12 1338 l0 1296 2240 0 2240 0 0 -1296z"/>
<path d="M2751 2863 c-16 -13 -86 -214 -266 -753 -135 -404 -245 -745 -245
-758 0 -57 83 -92 129 -54 16 12 86 213 266 752 135 404 245 745 245 758 0 57
-83 92 -129 55z"/>
<path d="M1515 2427 c-487 -311 -491 -314 -469 -373 7 -21 114 -94 469 -320
256 -163 470 -294 483 -294 35 0 58 16 72 50 26 63 20 68 -401 336 -214 136
-389 250 -389 254 0 4 176 119 391 256 390 248 409 262 409 315 0 29 -44 69
-77 69 -19 0 -169 -90 -488 -293z"/>
<path d="M3065 2695 c-30 -29 -33 -74 -7 -103 9 -10 189 -128 400 -262 210
-133 382 -246 382 -250 0 -4 -172 -117 -382 -250 -211 -134 -391 -252 -400
-262 -41 -46 -2 -128 59 -128 19 0 170 91 488 293 360 230 462 299 469 320 22
61 19 64 -469 374 -321 204 -468 293 -488 293 -16 0 -38 -10 -52 -25z"/>
</g>
</svg>
